<svg width="1023" height="1062" viewBox="0 0 1023 1062" fill="none" xmlns="http://www.w3.org/2000/svg">
<path opacity="0.5" d="M318.635 79.3017C198.697 171.252 180.111 345.125 98.8809 473.397C70.6041 518.031 34.0667 557.977 15.0036 607.492C-28.7619 720.83 31.472 849.392 112.093 939.409C150.536 982.352 195.44 1021.69 249.77 1039.79C291.55 1053.71 336.348 1054.29 380.325 1054.66L1150.79 1061.91C1236.81 1062.7 1332.39 1059.83 1394.24 999.074C1436.87 957.243 1454.18 896.152 1468.88 837.84C1486.93 766.189 1503.3 688.375 1475.2 620.131C1443.11 542.052 1361.96 497.804 1311.55 430.43C1229.74 321.273 1231.62 156.173 1127.44 69.0313C1078.8 28.3603 1014.62 12.4109 952.083 4.43623C834.184 -10.619 722.506 17.7999 606.725 13.8367C507.756 10.4535 400.739 16.3499 318.635 79.3017Z" fill="#E7ECFF"/>
<path opacity="0.24" d="M560.078 898.824C513.629 903.096 465.755 907.794 424.881 928.691C419.41 931.494 413.856 934.8 410.837 939.845C404.78 949.994 411.655 963.371 422.324 969.48C432.993 975.589 446.156 976.285 458.712 976.787C682.279 985.699 906.181 982.2 1129.94 978.72C1194.92 977.715 1260.92 976.555 1323.19 959.292C1334.39 956.199 1346.69 951.56 1350.9 941.45C1356.42 928.227 1343.84 913.574 1329.17 909.456C1314.5 905.339 1298.84 908.412 1283.66 910.21C1230.97 916.454 1177.81 906.905 1125.35 899.269C1022.64 884.345 916.075 872.205 812.047 869.943C776.581 869.189 746.293 880.44 711.582 884.886C661.465 891.343 610.467 894.185 560.078 898.824Z" fill="#505F98"/>
<path d="M377.369 502.484L493.198 286.684L562.185 317.584L446.355 533.385L377.369 502.484Z" fill="white"/>
<path d="M404.214 495.833L418.327 469.457L464.791 490.206L450.678 516.582L404.214 495.833Z" fill="#505F98"/>
<path d="M404.214 495.833L418.327 469.457L464.791 490.206L450.678 516.582L404.214 495.833Z" fill="url(#paint0_linear_108_1327)"/>
<path d="M418.329 469.663L432.443 443.287L478.907 464.035L464.794 490.411L418.329 469.663Z" fill="#505F98"/>
<path d="M418.329 469.663L432.443 443.287L478.907 464.035L464.794 490.411L418.329 469.663Z" fill="url(#paint1_linear_108_1327)"/>
<path d="M432.426 443.484L446.54 417.108L493.004 437.857L478.89 464.233L432.426 443.484Z" fill="#505F98"/>
<path d="M432.426 443.484L446.54 417.108L493.004 437.857L478.89 464.233L432.426 443.484Z" fill="url(#paint2_linear_108_1327)"/>
<path d="M446.563 417.333L460.676 390.957L507.14 411.705L493.027 438.082L446.563 417.333Z" fill="#505F98"/>
<path d="M446.563 417.333L460.676 390.957L507.14 411.705L493.027 438.082L446.563 417.333Z" fill="url(#paint3_linear_108_1327)"/>
<path d="M460.668 391.137L474.782 364.761L521.246 385.509L507.133 411.886L460.668 391.137Z" fill="#505F98"/>
<path d="M474.784 364.986L488.897 338.61L535.362 359.358L521.248 385.734L474.784 364.986Z" fill="#505F98"/>
<path d="M488.881 338.807L502.994 312.431L549.458 333.18L535.345 359.556L488.881 338.807Z" fill="#505F98"/>
<path d="M473.196 368.268L487.309 341.892L533.774 362.64L519.66 389.016L473.196 368.268Z" fill="url(#paint4_linear_108_1327)"/>
<path d="M487.321 342.081L501.434 315.705L547.898 336.453L533.785 362.829L487.321 342.081Z" fill="url(#paint5_linear_108_1327)"/>
<rect x="787.837" y="793.07" width="98.0679" height="75.0078" fill="#505F98"/>
<rect x="787.837" y="793.07" width="98.0679" height="75.0078" fill="url(#paint6_linear_108_1327)"/>
<rect x="579.693" y="480.233" width="518.359" height="324.729" rx="9.37" fill="#505F98"/>
<path opacity="0.65" d="M1081.04 507.16V776.204C1081.06 780.669 1079.13 784.956 1075.69 788.12C1072.25 791.284 1067.58 793.065 1062.7 793.07H611.039C606.165 793.06 601.494 791.277 598.056 788.114C594.617 784.951 592.691 780.667 592.702 776.204V507.16C592.691 502.697 594.617 498.413 598.056 495.25C601.494 492.087 606.165 490.305 611.039 490.295H1062.7C1067.58 490.3 1072.25 492.081 1075.69 495.245C1079.13 498.409 1081.06 502.696 1081.04 507.16Z" fill="url(#paint7_linear_108_1327)"/>
<rect x="742.806" y="858.93" width="206.143" height="19.2093" fill="#505F98"/>
<rect x="787.837" y="847.953" width="98.0679" height="10.9767" fill="url(#paint8_linear_108_1327)"/>
<path fill-rule="evenodd" clip-rule="evenodd" d="M942.945 323.12V341.847L930.235 341.943C928.999 350.657 925.375 358.949 919.697 366.057L930.552 376.274L915.672 389.309L904.986 379.226C898.397 383.328 890.962 386.171 883.13 387.584V399.736H862.559V387.871C853.774 386.71 845.402 383.726 838.089 379.149L829.153 387.219L814.589 373.801L823.462 365.885C817.876 358.774 814.313 350.516 813.092 341.847H798.845V323.12H813.598C815.427 315.667 819.024 308.667 824.136 302.609L815.896 294.846L830.776 281.812L839.206 289.805C846.176 285.591 854.1 282.859 862.39 281.812V268.93H882.961V282.099C891.33 283.616 899.239 286.761 906.145 291.319L916.683 281.888L931.163 295.191L920.625 304.775C924.756 310.337 927.689 316.562 929.266 323.12H942.945ZM836.803 334.928C836.78 352.364 852.303 366.515 871.474 366.536C880.686 366.562 889.529 363.25 896.051 357.334C902.572 351.417 906.235 343.382 906.229 335.004C906.253 317.568 890.73 303.416 871.559 303.395C852.387 303.374 836.827 317.492 836.803 334.928Z" fill="#505F98"/>
<path fill-rule="evenodd" clip-rule="evenodd" d="M1019 354.324L1018.08 365.339L1010.57 364.92C1009.44 369.985 1006.94 374.71 1003.28 378.66L1009.15 385.12L999.798 392.171L994.039 385.825C989.984 387.964 985.498 389.331 980.85 389.846L980.245 396.992L968.204 396.173L968.788 389.198C963.703 388.16 958.947 386.067 954.89 383.081L949.256 387.464L941.388 379.06L946.96 374.753C944.032 370.352 942.346 365.355 942.056 360.213L933.938 359.641L934.836 348.645L943.454 349.236C944.878 344.931 947.305 340.959 950.57 337.592L946.125 332.694L955.474 325.643L960.003 330.674C964.274 328.474 969.029 327.172 973.922 326.863L974.548 319.24L986.589 320.06L985.942 327.816C990.749 329.041 995.207 331.206 999.005 334.162L1005.62 329.036L1013.47 337.44L1006.79 342.642C1008.96 346.077 1010.37 349.863 1010.96 353.79L1019 354.324ZM956.3 356.966C955.445 367.205 963.838 376.139 975.049 376.925C980.443 377.314 985.784 375.722 989.889 372.503C993.994 369.284 996.524 364.702 996.919 359.774C997.761 349.535 989.358 340.609 978.146 339.834C966.934 339.059 957.155 346.728 956.3 356.966Z" fill="#505F98"/>
<path d="M1081.04 507.229V513.163H592.702V507.229C592.691 502.748 594.617 498.446 598.056 495.27C601.495 492.095 606.166 490.305 611.041 490.295H1062.7C1067.58 490.3 1072.25 492.088 1075.69 495.265C1079.13 498.442 1081.06 502.746 1081.04 507.229Z" fill="url(#paint9_linear_108_1327)"/>
<rect x="602.709" y="542.434" width="47.0326" height="207.643" fill="url(#paint10_linear_108_1327)"/>
<rect x="720.791" y="557.07" width="221.153" height="191.178" fill="url(#paint11_linear_108_1327)"/>
<rect x="771.826" y="646.713" width="7.00485" height="8.23256" fill="url(#paint12_linear_108_1327)"/>
<rect x="771.826" y="608.295" width="7.00485" height="8.23256" fill="url(#paint13_linear_108_1327)"/>
<rect x="676.76" y="646.713" width="7.00485" height="8.23256" fill="url(#paint14_linear_108_1327)"/>
<rect x="676.76" y="608.295" width="7.00485" height="8.23256" fill="url(#paint15_linear_108_1327)"/>
<rect x="771.826" y="567.132" width="7.00485" height="8.23256" fill="url(#paint16_linear_108_1327)"/>
<rect x="677.761" y="567.132" width="7.00485" height="8.23256" fill="url(#paint17_linear_108_1327)"/>
<rect x="725.794" y="567.132" width="7.00485" height="8.23256" fill="url(#paint18_linear_108_1327)"/>
<rect x="725.794" y="646.713" width="7.00485" height="8.23256" fill="url(#paint19_linear_108_1327)"/>
<path fill-rule="evenodd" clip-rule="evenodd" d="M689.769 644.884H767.823V578.109H689.769V644.884ZM759.961 637.824H697.631V585.112H759.961V637.824Z" fill="#505F98"/>
<path fill-rule="evenodd" clip-rule="evenodd" d="M689.769 644.884H767.823V578.109H689.769V644.884ZM759.961 637.824H697.631V585.112H759.961V637.824Z" fill="url(#paint20_linear_108_1327)"/>
<rect x="973.966" y="524.14" width="100.069" height="91.4729" fill="url(#paint21_linear_108_1327)"/>
<rect x="973.966" y="624.76" width="100.069" height="91.4729" fill="url(#paint22_linear_108_1327)"/>
<rect opacity="0.65" x="602.709" y="541.519" width="47.0326" height="11.8915" fill="url(#paint23_linear_108_1327)"/>
<path d="M399.673 479.159L604.801 328.655L652.914 383.379L447.785 533.883L399.673 479.159Z" fill="white"/>
<path d="M428.396 483.393L453.464 464.897L486.046 501.749L460.979 520.244L428.396 483.393Z" fill="#505F98"/>
<path d="M428.396 483.393L453.464 464.897L486.046 501.749L460.979 520.244L428.396 483.393Z" fill="url(#paint24_linear_108_1327)"/>
<path d="M452.014 465.312L477.047 446.9L509.481 483.7L484.449 502.112L452.014 465.312Z" fill="#505F98"/>
<path d="M452.014 465.312L477.047 446.9L509.481 483.7L484.449 502.112L452.014 465.312Z" fill="url(#paint25_linear_108_1327)"/>
<path d="M476.958 447.084L501.99 428.672L534.425 465.471L509.393 483.884L476.958 447.084Z" fill="#505F98"/>
<path d="M476.958 447.084L501.99 428.672L534.425 465.471L509.393 483.884L476.958 447.084Z" fill="url(#paint26_linear_108_1327)"/>
<path d="M501.886 428.867L526.918 410.455L559.353 447.255L534.321 465.667L501.886 428.867Z" fill="#505F98"/>
<path d="M501.886 428.867L526.918 410.455L559.353 447.255L534.321 465.667L501.886 428.867Z" fill="url(#paint27_linear_108_1327)"/>
<path d="M528.006 410.155L553.073 391.659L585.656 428.51L560.588 447.006L528.006 410.155Z" fill="#505F98"/>
<path d="M553.086 391.495L578.154 372.999L610.736 409.851L585.668 428.347L553.086 391.495Z" fill="#505F98"/>
<path d="M576.693 374.171L601.726 355.759L634.161 392.558L609.128 410.971L576.693 374.171Z" fill="#505F98"/>
<path d="M606.712 413.657L585.613 429.008L553.675 392.219L574.774 376.868L606.712 413.657Z" fill="url(#paint28_linear_108_1327)"/>
<path d="M573.736 376.546L598.768 358.134L631.203 394.933L606.171 413.346L573.736 376.546Z" fill="url(#paint29_linear_108_1327)"/>
<path d="M522.653 487.687V600.062H501.639V487.687C501.639 483.535 504.457 479.839 508.657 478.485V467.266C508.657 465.334 510.333 463.767 512.4 463.767C514.468 463.767 516.144 465.334 516.144 467.266V478.675C520.063 480.173 522.632 483.73 522.653 487.687Z" fill="#505F98"/>
<path d="M522.653 487.687V600.062H501.639V487.687C501.639 483.535 504.457 479.839 508.657 478.485V467.266C508.657 465.334 510.333 463.767 512.4 463.767C514.468 463.767 516.144 465.334 516.144 467.266V478.675C520.063 480.173 522.632 483.73 522.653 487.687Z" fill="url(#paint30_linear_108_1327)"/>
<rect x="488.63" y="558.899" width="50.0346" height="8.23256" rx="2.245" fill="#505F98"/>
<path d="M513.336 633.907C504.763 633.907 497.636 622.184 497.636 614.363V562.558H528.658V614.363C528.658 622.184 521.887 633.907 513.336 633.907Z" fill="#505F98"/>
<rect x="488.63" y="558.899" width="50.0346" height="8.23256" rx="2.245" fill="url(#paint31_linear_108_1327)"/>
<path d="M513.336 633.907C504.763 633.907 497.636 622.35 497.636 614.64V567.132H528.658V614.64C528.658 622.35 521.887 633.907 513.336 633.907Z" fill="url(#paint32_linear_108_1327)"/>
<path d="M713.428 688.791C712.754 685.53 712.329 680.915 713.623 680.598C716.351 679.895 713.428 688.791 713.428 688.791Z" fill="#28353D"/>
<path d="M856.687 867.626C856.201 879.147 846.439 921.487 846.122 933.027C846.122 936.867 847.242 942.762 845.889 946.468C843.1 954.322 833.211 953.246 831.922 948.619L831.436 946.315C826.85 923.887 834.225 898.445 831.436 869.162C829.766 851.286 821.99 816.819 816.898 816.588C814.214 816.588 752.957 934.717 747.632 941.994C745.011 945.662 737.637 945.086 734.066 948.043C730.495 951 763.818 858.486 777.785 809.599C781.043 799.509 783.167 789.144 784.124 778.665C784.505 772.617 782.37 770.581 788.477 768.795C792.703 767.567 798.557 767.912 803.078 767.624C808.002 767.278 853.792 767.202 853.792 770.159C853.348 786.211 857.87 841.013 856.687 867.626Z" fill="#606161"/>
<path d="M856.687 867.626C856.201 879.147 846.439 921.487 846.122 933.027C846.122 936.867 847.242 942.762 845.889 946.468C843.1 954.322 833.211 953.246 831.922 948.619L831.436 946.315C826.85 923.887 834.225 898.445 831.436 869.162C829.766 851.286 821.99 816.819 816.898 816.588C814.214 816.588 752.957 934.717 747.632 941.994C745.011 945.662 737.637 945.086 734.066 948.043C730.495 951 763.818 858.486 777.785 809.599C781.043 799.509 783.167 789.144 784.124 778.665C784.505 772.617 782.37 770.581 788.477 768.795C792.703 767.567 798.557 767.912 803.078 767.624C808.002 767.278 853.792 767.202 853.792 770.159C853.348 786.211 857.87 841.013 856.687 867.626Z" fill="url(#paint33_linear_108_1327)"/>
<path d="M802.614 622.151C802.229 618.505 800.346 616.527 798.506 616.527C796.667 616.527 795.533 618.466 795.918 622.151C796.005 624.871 798.249 627.135 801.223 627.504C803.085 627.504 803.02 625.797 802.614 622.151Z" fill="#FFCD9C"/>
<path d="M835.008 622.161C835.258 618.509 837.095 616.527 838.994 616.527C840.893 616.527 842.124 618.47 841.832 622.161C841.805 624.918 839.56 627.217 836.615 627.504C834.736 627.504 834.715 625.814 835.008 622.161Z" fill="#FFCD9C"/>
<path d="M838.732 638.18C838.473 640.106 829.558 648.543 819.413 648.543C809.267 648.543 800.892 640.838 799.122 637.757C797.352 634.675 804.475 595.036 808.598 591.723C812.721 588.41 829.429 590.587 830.832 592.339C834.199 596.481 839.833 630.495 838.732 638.18Z" fill="#F4AD7D"/>
<path d="M834.538 608.273C833.159 608.879 827.743 596.258 826.607 594.139C825.472 592.02 825.654 589.844 827.033 589.238C828.413 588.633 830.441 589.882 831.577 591.982C832.713 594.082 835.897 607.687 834.538 608.273Z" fill="#FFCD9C"/>
<path d="M804.168 607.368C802.737 606.923 806.525 593.822 807.351 591.558C808.177 589.294 810.031 587.804 811.381 588.249C812.731 588.694 813.295 590.9 812.469 593.184C811.643 595.467 805.518 607.813 804.168 607.368Z" fill="#FFCD9C"/>
<path d="M809.845 636.651H831.608L834.87 655.515C823.014 661.353 816.101 660.709 806.85 654.226L809.845 636.651Z" fill="#F4AD7D"/>
<path d="M818.859 640.429C818.859 640.081 819.764 639.789 820.86 639.789C821.956 639.789 822.861 640.081 822.861 640.429C822.861 640.777 821.98 640.831 820.86 640.831C819.74 640.831 818.859 640.795 818.859 640.429Z" fill="#F4AD7D"/>
<path d="M839.892 631.902C840.716 627.407 842.06 595.222 838.764 590.961C835.469 586.701 815.741 583.946 812.749 584.61C806.05 586.095 807.221 590.473 807.221 590.473C805.23 590.5 803.28 590.992 801.563 591.899C799.265 593.306 794.43 613.591 798.289 628.931C800.023 635.83 806.852 641.829 818.646 642.122C833.171 642.474 838.895 637.471 839.892 631.902Z" fill="#606161"/>
<path d="M812.831 586.123C814.39 584.922 816.41 584.354 818.43 584.549C824.563 584.519 830.647 585.554 836.365 587.6C839.535 588.616 842.414 590.284 844.785 592.477C847.172 594.732 848.271 597.892 847.753 601.008C846.7 605.593 841.438 608.43 839.712 612.841C838.322 616.378 839.312 619.798 839.354 623.353C839.382 626.228 839.156 629.101 838.68 631.942C837.712 637.48 832.176 642.454 817.967 642.124C806.516 641.832 799.885 635.867 798.201 629.008C795.921 617.623 796.519 605.907 799.948 594.77C806.12 596.082 812.434 596.734 818.767 596.713C825.482 596.765 832.178 596.047 838.701 594.576C839.817 600.522 839.796 612.433 839.438 621.333" fill="#606161"/>
<path d="M777.702 652.159C774.268 652.422 770.96 653.468 768.077 655.202C763.139 658.761 762.764 665.401 762.848 671.18C762.678 679.187 763.285 687.192 764.66 695.1C766.139 702.352 768.827 709.318 771.035 716.417C774.516 727.97 776.344 739.89 776.473 751.876C776.473 758.459 776.348 765.692 780.827 770.839C785.723 776.427 794.39 777.518 802.182 777.92C813.245 778.513 824.349 778.589 835.412 778.168C842.829 777.862 850.725 777.192 856.6 773.021C861.288 769.691 872.267 657.039 863.746 654.188C855.225 651.336 846.058 650.609 837.016 649.92C816.745 648.351 797.661 647.107 777.702 652.159Z" fill="#505F98"/>
<path d="M841.521 885.723C840.435 898.497 837.843 944.915 837.843 944.915L831.238 944.705C826.702 922.403 833.997 897.103 831.238 867.985C829.586 850.208 821.895 815.935 816.857 815.705C818.362 804.249 826.827 805.967 826.827 805.967C832.984 814.378 838.294 823.28 842.692 832.565C847.729 844.633 842.629 872.892 841.521 885.723Z" fill="url(#paint34_linear_108_1327)"/>
<path d="M717.164 945.851C716.133 946.549 715.35 947.503 714.913 948.597C714.678 949.496 714.773 950.44 715.184 951.286C716.35 953.445 718.56 954.994 721.168 955.48C723.744 955.928 726.383 956.011 728.987 955.725L737.328 955.217C739.45 955.171 741.555 954.861 743.583 954.295C745.614 953.721 747.289 952.414 748.212 950.684C748.704 949.411 748.895 948.06 748.775 946.716C748.775 940.491 746.357 935.432 738.808 936.956C730.902 938.297 723.474 941.349 717.164 945.851Z" fill="#505F98"/>
<path d="M855.703 948.631C856.65 949.268 857.369 950.137 857.77 951.132C857.984 951.942 857.9 952.792 857.53 953.556C856.468 955.511 854.438 956.91 852.047 957.336C849.69 957.753 847.273 957.832 844.888 957.569L837.316 957.104C835.39 957.066 833.478 956.792 831.636 956.289C829.779 955.767 828.25 954.58 827.415 953.013C826.967 951.862 826.789 950.641 826.893 949.426C826.893 943.804 829.069 939.17 836.01 940.605C843.206 941.822 849.964 944.576 855.703 948.631Z" fill="#505F98"/>
<path d="M864.891 654.031C864.891 654.031 897.606 671.56 907.432 693.72C917.257 715.879 875.252 769.287 875.252 769.287L866.263 760.884C866.263 760.884 888.188 720.586 884.799 710.506C881.409 700.427 868.13 691.033 868.13 691.033L864.891 654.031Z" fill="#505F98"/>
<path d="M771.826 688.662C771.826 688.662 726.338 707.305 707.853 698.156C689.368 689.008 708.398 643.054 708.398 643.054L720.777 646.898C720.777 646.898 710.433 670.326 722.267 673.805C734.101 677.284 769.56 654.432 769.56 654.432L771.826 688.662Z" fill="#505F98"/>
<path d="M857.466 768.35C856.158 769.128 855.097 770.172 854.381 771.388C853.952 772.42 853.797 773.521 853.928 774.61C853.849 777.253 855.163 779.787 857.51 781.514C859.158 782.322 861.005 782.788 862.903 782.877C864.066 783.051 865.256 783.051 866.419 782.877C867.606 782.684 868.597 781.991 869.051 781.036C869.206 780.431 869.271 779.813 869.245 779.194C869.396 776.157 871.899 773.671 873.97 771.186C874.47 770.705 874.793 770.11 874.897 769.473C874.885 768.769 874.597 768.088 874.078 767.54C872.675 765.81 869.202 762.624 866.419 762.901C863.636 763.177 859.624 766.841 857.466 768.35Z" fill="#F4AD7D"/>
<path d="M728.585 636.134C729.178 635.381 729.582 634.528 729.772 633.63C729.923 632.702 729.386 631.791 728.431 631.356C726.915 630.84 725.114 632.197 723.62 631.623C723.114 631.377 722.69 631.022 722.389 630.591C720.625 628.368 719.613 625.759 719.467 623.061C719.553 621.623 719.405 620.182 719.028 618.78C718.583 617.337 717 616.389 715.293 616.544C713.886 616.83 713.095 618.073 712.217 619.066C711.338 620.06 709.58 621.245 708.437 622.488C706.487 625.041 705.37 628.007 705.208 631.069C704.592 634.892 704.197 639.269 707.273 642.021C709.646 644.142 716.874 646.646 720.192 645.518C723.861 644.257 726.74 638.886 728.585 636.134Z" fill="#F4AD7D"/>
<defs>
<linearGradient id="paint0_linear_108_1327" x1="528.402" y1="557.221" x2="584.435" y2="435.6" gradientUnits="userSpaceOnUse">
<stop stop-color="#010101" stop-opacity="0.01"/>
<stop offset="0.95" stop-color="#010101"/>
</linearGradient>
<linearGradient id="paint1_linear_108_1327" x1="583.563" y1="553.744" x2="663.978" y2="381.821" gradientUnits="userSpaceOnUse">
<stop stop-color="#010101" stop-opacity="0.01"/>
<stop offset="0.95" stop-color="#010101"/>
</linearGradient>
<linearGradient id="paint2_linear_108_1327" x1="703.545" y1="561.728" x2="821.634" y2="270.226" gradientUnits="userSpaceOnUse">
<stop stop-color="#010101" stop-opacity="0.01"/>
<stop offset="0.95" stop-color="#010101"/>
</linearGradient>
<linearGradient id="paint3_linear_108_1327" x1="831.379" y1="576.812" x2="1007.85" y2="155.633" gradientUnits="userSpaceOnUse">
<stop stop-color="#010101" stop-opacity="0.01"/>
<stop offset="0.36" stop-color="#010101" stop-opacity="0.36"/>
<stop offset="0.95" stop-color="#010101"/>
</linearGradient>
<linearGradient id="paint4_linear_108_1327" x1="682.726" y1="480.749" x2="783.902" y2="252.664" gradientUnits="userSpaceOnUse">
<stop stop-color="white" stop-opacity="0.01"/>
<stop offset="0.07" stop-color="white" stop-opacity="0.22"/>
<stop offset="0.16" stop-color="white" stop-opacity="0.45"/>
<stop offset="0.25" stop-color="white" stop-opacity="0.65"/>
<stop offset="0.33" stop-color="white" stop-opacity="0.8"/>
<stop offset="0.4" stop-color="white" stop-opacity="0.91"/>
<stop offset="0.46" stop-color="white" stop-opacity="0.98"/>
<stop offset="0.51" stop-color="white"/>
</linearGradient>
<linearGradient id="paint5_linear_108_1327" x1="604.65" y1="432.158" x2="660.014" y2="304.04" gradientUnits="userSpaceOnUse">
<stop stop-color="white" stop-opacity="0.01"/>
<stop offset="0.07" stop-color="white" stop-opacity="0.22"/>
<stop offset="0.16" stop-color="white" stop-opacity="0.45"/>
<stop offset="0.25" stop-color="white" stop-opacity="0.65"/>
<stop offset="0.33" stop-color="white" stop-opacity="0.8"/>
<stop offset="0.4" stop-color="white" stop-opacity="0.91"/>
<stop offset="0.46" stop-color="white" stop-opacity="0.98"/>
<stop offset="0.51" stop-color="white"/>
</linearGradient>
<linearGradient id="paint6_linear_108_1327" x1="909.972" y1="855.566" x2="918.701" y2="739.508" gradientUnits="userSpaceOnUse">
<stop stop-color="#010101" stop-opacity="0.01"/>
<stop offset="0.95" stop-color="#010101"/>
</linearGradient>
<linearGradient id="paint7_linear_108_1327" x1="508.259" y1="432.225" x2="505.987" y2="843.447" gradientUnits="userSpaceOnUse">
<stop stop-color="white" stop-opacity="0.01"/>
<stop offset="0.07" stop-color="white" stop-opacity="0.22"/>
<stop offset="0.16" stop-color="white" stop-opacity="0.45"/>
<stop offset="0.25" stop-color="white" stop-opacity="0.65"/>
<stop offset="0.33" stop-color="white" stop-opacity="0.8"/>
<stop offset="0.4" stop-color="white" stop-opacity="0.91"/>
<stop offset="0.46" stop-color="white" stop-opacity="0.98"/>
<stop offset="0.51" stop-color="white"/>
</linearGradient>
<linearGradient id="paint8_linear_108_1327" x1="254.605" y1="832.47" x2="254.689" y2="962.575" gradientUnits="userSpaceOnUse">
<stop stop-color="#010101" stop-opacity="0.01"/>
<stop offset="0.95" stop-color="#010101"/>
</linearGradient>
<linearGradient id="paint9_linear_108_1327" x1="1407.02" y1="600.031" x2="1435.65" y2="227.209" gradientUnits="userSpaceOnUse">
<stop stop-color="white" stop-opacity="0.01"/>
<stop offset="0.07" stop-color="white" stop-opacity="0.22"/>
<stop offset="0.16" stop-color="white" stop-opacity="0.45"/>
<stop offset="0.25" stop-color="white" stop-opacity="0.65"/>
<stop offset="0.33" stop-color="white" stop-opacity="0.8"/>
<stop offset="0.4" stop-color="white" stop-opacity="0.91"/>
<stop offset="0.46" stop-color="white" stop-opacity="0.98"/>
<stop offset="0.51" stop-color="white"/>
</linearGradient>
<linearGradient id="paint10_linear_108_1327" x1="580.138" y1="499.323" x2="697.981" y2="843.104" gradientUnits="userSpaceOnUse">
<stop stop-color="white" stop-opacity="0.01"/>
<stop offset="0.07" stop-color="white" stop-opacity="0.22"/>
<stop offset="0.16" stop-color="white" stop-opacity="0.45"/>
<stop offset="0.25" stop-color="white" stop-opacity="0.65"/>
<stop offset="0.33" stop-color="white" stop-opacity="0.8"/>
<stop offset="0.4" stop-color="white" stop-opacity="0.91"/>
<stop offset="0.46" stop-color="white" stop-opacity="0.98"/>
<stop offset="0.51" stop-color="white"/>
</linearGradient>
<linearGradient id="paint11_linear_108_1327" x1="683.668" y1="520.472" x2="680.886" y2="779.079" gradientUnits="userSpaceOnUse">
<stop stop-color="white" stop-opacity="0.01"/>
<stop offset="0.07" stop-color="white" stop-opacity="0.22"/>
<stop offset="0.16" stop-color="white" stop-opacity="0.45"/>
<stop offset="0.25" stop-color="white" stop-opacity="0.65"/>
<stop offset="0.33" stop-color="white" stop-opacity="0.8"/>
<stop offset="0.4" stop-color="white" stop-opacity="0.91"/>
<stop offset="0.46" stop-color="white" stop-opacity="0.98"/>
<stop offset="0.51" stop-color="white"/>
</linearGradient>
<linearGradient id="paint12_linear_108_1327" x1="999.503" y1="695.838" x2="1015.56" y2="167.104" gradientUnits="userSpaceOnUse">
<stop stop-color="#010101" stop-opacity="0.01"/>
<stop offset="0.95" stop-color="#010101"/>
</linearGradient>
<linearGradient id="paint13_linear_108_1327" x1="998.651" y1="696.149" x2="1014.71" y2="167.415" gradientUnits="userSpaceOnUse">
<stop stop-color="#010101" stop-opacity="0.01"/>
<stop offset="0.95" stop-color="#010101"/>
</linearGradient>
<linearGradient id="paint14_linear_108_1327" x1="904.472" y1="693.688" x2="920.553" y2="164.954" gradientUnits="userSpaceOnUse">
<stop stop-color="#010101" stop-opacity="0.01"/>
<stop offset="0.95" stop-color="#010101"/>
</linearGradient>
<linearGradient id="paint15_linear_108_1327" x1="903.62" y1="693.999" x2="919.702" y2="165.265" gradientUnits="userSpaceOnUse">
<stop stop-color="#010101" stop-opacity="0.01"/>
<stop offset="0.95" stop-color="#010101"/>
</linearGradient>
<linearGradient id="paint16_linear_108_1327" x1="997.712" y1="697.522" x2="1013.79" y2="168.788" gradientUnits="userSpaceOnUse">
<stop stop-color="#010101" stop-opacity="0.01"/>
<stop offset="0.95" stop-color="#010101"/>
</linearGradient>
<linearGradient id="paint17_linear_108_1327" x1="903.682" y1="695.41" x2="919.74" y2="166.675" gradientUnits="userSpaceOnUse">
<stop stop-color="#010101" stop-opacity="0.01"/>
<stop offset="0.95" stop-color="#010101"/>
</linearGradient>
<linearGradient id="paint18_linear_108_1327" x1="951.672" y1="696.471" x2="967.754" y2="167.757" gradientUnits="userSpaceOnUse">
<stop stop-color="#010101" stop-opacity="0.01"/>
<stop offset="0.95" stop-color="#010101"/>
</linearGradient>
<linearGradient id="paint19_linear_108_1327" x1="953.488" y1="694.136" x2="969.57" y2="165.402" gradientUnits="userSpaceOnUse">
<stop stop-color="#010101" stop-opacity="0.01"/>
<stop offset="0.95" stop-color="#010101"/>
</linearGradient>
<linearGradient id="paint20_linear_108_1327" x1="608.41" y1="707.451" x2="821.307" y2="924.622" gradientUnits="userSpaceOnUse">
<stop stop-color="white" stop-opacity="0.01"/>
<stop offset="0.07" stop-color="white" stop-opacity="0.22"/>
<stop offset="0.16" stop-color="white" stop-opacity="0.45"/>
<stop offset="0.25" stop-color="white" stop-opacity="0.65"/>
<stop offset="0.33" stop-color="white" stop-opacity="0.8"/>
<stop offset="0.4" stop-color="white" stop-opacity="0.91"/>
<stop offset="0.46" stop-color="white" stop-opacity="0.98"/>
<stop offset="0.51" stop-color="white"/>
</linearGradient>
<linearGradient id="paint21_linear_108_1327" x1="957.277" y1="506.635" x2="955.784" y2="630.275" gradientUnits="userSpaceOnUse">
<stop stop-color="white" stop-opacity="0.01"/>
<stop offset="0.07" stop-color="white" stop-opacity="0.22"/>
<stop offset="0.16" stop-color="white" stop-opacity="0.45"/>
<stop offset="0.25" stop-color="white" stop-opacity="0.65"/>
<stop offset="0.33" stop-color="white" stop-opacity="0.8"/>
<stop offset="0.4" stop-color="white" stop-opacity="0.91"/>
<stop offset="0.46" stop-color="white" stop-opacity="0.98"/>
<stop offset="0.51" stop-color="white"/>
</linearGradient>
<linearGradient id="paint22_linear_108_1327" x1="957.277" y1="607.255" x2="955.784" y2="730.895" gradientUnits="userSpaceOnUse">
<stop stop-color="white" stop-opacity="0.01"/>
<stop offset="0.07" stop-color="white" stop-opacity="0.22"/>
<stop offset="0.16" stop-color="white" stop-opacity="0.45"/>
<stop offset="0.25" stop-color="white" stop-opacity="0.65"/>
<stop offset="0.33" stop-color="white" stop-opacity="0.8"/>
<stop offset="0.4" stop-color="white" stop-opacity="0.91"/>
<stop offset="0.46" stop-color="white" stop-opacity="0.98"/>
<stop offset="0.51" stop-color="white"/>
</linearGradient>
<linearGradient id="paint23_linear_108_1327" x1="593.437" y1="539.032" x2="593.422" y2="555.681" gradientUnits="userSpaceOnUse">
<stop stop-color="white" stop-opacity="0.01"/>
<stop offset="0.07" stop-color="white" stop-opacity="0.22"/>
<stop offset="0.16" stop-color="white" stop-opacity="0.45"/>
<stop offset="0.25" stop-color="white" stop-opacity="0.65"/>
<stop offset="0.33" stop-color="white" stop-opacity="0.8"/>
<stop offset="0.4" stop-color="white" stop-opacity="0.91"/>
<stop offset="0.46" stop-color="white" stop-opacity="0.98"/>
<stop offset="0.51" stop-color="white"/>
</linearGradient>
<linearGradient id="paint24_linear_108_1327" x1="512.737" y1="587.303" x2="618.275" y2="496.352" gradientUnits="userSpaceOnUse">
<stop stop-color="#010101" stop-opacity="0.01"/>
<stop offset="0.95" stop-color="#010101"/>
</linearGradient>
<linearGradient id="paint25_linear_108_1327" x1="562.575" y1="605.54" x2="712.835" y2="478.098" gradientUnits="userSpaceOnUse">
<stop stop-color="#010101" stop-opacity="0.01"/>
<stop offset="0.95" stop-color="#010101"/>
</linearGradient>
<linearGradient id="paint26_linear_108_1327" x1="667.519" y1="659.292" x2="903.832" y2="434.675" gradientUnits="userSpaceOnUse">
<stop stop-color="#010101" stop-opacity="0.01"/>
<stop offset="0.95" stop-color="#010101"/>
</linearGradient>
<linearGradient id="paint27_linear_108_1327" x1="776.279" y1="722.512" x2="1123.63" y2="400.669" gradientUnits="userSpaceOnUse">
<stop stop-color="#010101" stop-opacity="0.01"/>
<stop offset="0.36" stop-color="#010101" stop-opacity="0.36"/>
<stop offset="0.95" stop-color="#010101"/>
</linearGradient>
<linearGradient id="paint28_linear_108_1327" x1="624.537" y1="505.617" x2="796.081" y2="370.886" gradientUnits="userSpaceOnUse">
<stop stop-color="white" stop-opacity="0.01"/>
<stop offset="0.07" stop-color="white" stop-opacity="0.22"/>
<stop offset="0.16" stop-color="white" stop-opacity="0.45"/>
<stop offset="0.25" stop-color="white" stop-opacity="0.65"/>
<stop offset="0.33" stop-color="white" stop-opacity="0.8"/>
<stop offset="0.4" stop-color="white" stop-opacity="0.91"/>
<stop offset="0.46" stop-color="white" stop-opacity="0.98"/>
<stop offset="0.51" stop-color="white"/>
</linearGradient>
<linearGradient id="paint29_linear_108_1327" x1="638.151" y1="503.573" x2="745.497" y2="406.478" gradientUnits="userSpaceOnUse">
<stop stop-color="white" stop-opacity="0.01"/>
<stop offset="0.07" stop-color="white" stop-opacity="0.22"/>
<stop offset="0.16" stop-color="white" stop-opacity="0.45"/>
<stop offset="0.25" stop-color="white" stop-opacity="0.65"/>
<stop offset="0.33" stop-color="white" stop-opacity="0.8"/>
<stop offset="0.4" stop-color="white" stop-opacity="0.91"/>
<stop offset="0.46" stop-color="white" stop-opacity="0.98"/>
<stop offset="0.51" stop-color="white"/>
</linearGradient>
<linearGradient id="paint30_linear_108_1327" x1="503.738" y1="655.627" x2="541.923" y2="655.651" gradientUnits="userSpaceOnUse">
<stop stop-color="white" stop-opacity="0.01"/>
<stop offset="0.07" stop-color="white" stop-opacity="0.22"/>
<stop offset="0.16" stop-color="white" stop-opacity="0.45"/>
<stop offset="0.25" stop-color="white" stop-opacity="0.65"/>
<stop offset="0.33" stop-color="white" stop-opacity="0.8"/>
<stop offset="0.4" stop-color="white" stop-opacity="0.91"/>
<stop offset="0.46" stop-color="white" stop-opacity="0.98"/>
<stop offset="0.51" stop-color="white"/>
</linearGradient>
<linearGradient id="paint31_linear_108_1327" x1="430.446" y1="566.4" x2="440.329" y2="602.316" gradientUnits="userSpaceOnUse">
<stop stop-color="#010101" stop-opacity="0.01"/>
<stop offset="0.95" stop-color="#010101"/>
</linearGradient>
<linearGradient id="paint32_linear_108_1327" x1="455.244" y1="702.45" x2="556.138" y2="704.684" gradientUnits="userSpaceOnUse">
<stop stop-color="#010101" stop-opacity="0.01"/>
<stop offset="0.95" stop-color="#010101"/>
</linearGradient>
<linearGradient id="paint33_linear_108_1327" x1="858.015" y1="846.592" x2="774.136" y2="689.348" gradientUnits="userSpaceOnUse">
<stop stop-color="#010101" stop-opacity="0.01"/>
<stop offset="0.95" stop-color="#010101"/>
</linearGradient>
<linearGradient id="paint34_linear_108_1327" x1="859.037" y1="424.335" x2="686.178" y2="429.658" gradientUnits="userSpaceOnUse">
<stop stop-color="#010101" stop-opacity="0.01"/>
<stop offset="0.95" stop-color="#010101"/>
</linearGradient>
</defs>
</svg>
